<svg xmlns="http://www.w3.org/2000/svg" fill="none" viewBox="0 0 36 34"><path fill="currentColor" d="M18 34C7.737 34 0 29.971 0 24.63c0-5.342 7.737-9.371 18-9.371s18 4.029 18 9.37C36 29.972 28.26 34 18 34m0-14.48c-8.335 0-13.865 3.076-13.865 5.11 0 2.033 5.53 5.109 13.865 5.109s13.865-3.076 13.865-5.11c0-2.033-5.53-5.109-13.865-5.109"/><path fill="currentColor" d="M27.365 23.665a2.17 2.17 0 0 1-.48 1.374 2.06 2.06 0 0 1-1.226.733 2.02 2.02 0 0 1-1.395-.252 2.12 2.12 0 0 1-.91-1.119l-5.49-15.63-4.74 15.494c-.147.487-.46.903-.879 1.173-.42.27-.92.376-1.408.298a2.05 2.05 0 0 1-1.257-.72 2.17 2.17 0 0 1-.4-2.033L15.748 1.52v-.035a2.13 2.13 0 0 1 .733-1.06A2.03 2.03 0 0 1 17.677 0c.431-.009.855.122 1.21.373.357.252.627.612.775 1.03l.03.089 7.518 21.344.038.105c.08.232.119.477.117.724"/></svg>