<svg width="1990" height="1834" viewBox="0 0 1990 1834" fill="none" xmlns="http://www.w3.org/2000/svg">
<path fill-rule="evenodd" clip-rule="evenodd" d="M1486.14 1350.62C1503.38 1329.83 1512.77 1303.59 1512.66 1276.52C1512.78 1263.21 1510.6 1249.99 1506.22 1237.44L1504.14 1231.8L1463.11 1118.14C1651.09 1176.46 1761.41 1262.64 1761.41 1328.55C1761.41 1438.25 1455.72 1604.15 995 1604.15C534.283 1604.15 228.592 1438.25 228.592 1328.55C228.592 1260.27 347.021 1170.21 547.549 1111.94L507.474 1239.74C503.881 1250.95 502.058 1262.65 502.071 1274.43C502.018 1301.92 511.772 1328.53 529.561 1349.41C547.351 1370.29 571.997 1384.07 599.027 1388.24C626.057 1392.41 653.679 1386.7 676.878 1372.15C700.078 1357.59 717.318 1335.15 725.468 1308.9L802.578 1062.96C863.059 1056.51 927.359 1052.94 995 1052.94C1067.46 1052.94 1136.09 1057.04 1200.3 1064.39L1290.92 1316.22C1300.11 1341.66 1317.93 1363.03 1341.25 1376.56C1364.57 1390.09 1391.89 1394.9 1418.4 1390.15C1444.91 1385.41 1468.89 1371.41 1486.14 1350.62ZM1368.97 857.363C1740.11 929.42 1990 1108.29 1990 1328.55C1990 1616.69 1562.12 1834 995 1834C427.675 1834 0 1616.69 0 1328.55C0 1106.96 252.925 927.258 627.781 856.067L870.521 81.9383V80.0577C877.759 57.1987 891.93 37.1903 911.048 22.8375C930.165 8.48473 953.271 0.507232 977.125 0.0233877C1000.98 -0.460456 1024.39 6.57361 1044.06 20.1395C1063.74 33.7053 1078.7 53.1228 1086.85 75.6698L1088.51 80.4757L1368.97 857.363ZM876.778 826.303L987.518 473.096L1114.65 826.382C1075.55 824.206 1035.64 823.091 995 823.091C954.86 823.091 915.418 824.179 876.778 826.303Z" fill="white"/>
</svg>
