<svg width="56" height="54" viewBox="0 0 56 54" fill="none" xmlns="http://www.w3.org/2000/svg">
<rect width="56" height="53.1765" fill="#163219"/>
<path fill-rule="evenodd" clip-rule="evenodd" d="M36.8849 34.4322C37.1968 34.0562 37.3667 33.5815 37.3647 33.0918C37.3669 32.8511 37.3274 32.612 37.2481 32.3849L37.2105 32.2829L36.4683 30.2268C39.8689 31.2817 41.8647 32.8408 41.8647 34.033C41.8647 36.0174 36.3346 39.0186 28 39.0186C19.6654 39.0186 14.1353 36.0174 14.1353 34.033C14.1353 32.7978 16.2778 31.1687 19.9054 30.1146L19.1804 32.4265C19.1154 32.6292 19.0825 32.841 19.0827 33.054C19.0817 33.5514 19.2582 34.0326 19.58 34.4104C19.9018 34.7882 20.3477 35.0374 20.8367 35.1129C21.3257 35.1883 21.8253 35.085 22.245 34.8217C22.6647 34.5583 22.9766 34.1524 23.1241 33.6776L24.519 29.2287C25.6131 29.112 26.7763 29.0473 28 29.0473C29.3109 29.0473 30.5524 29.1216 31.714 29.2544L33.3534 33.8099C33.5195 34.2703 33.842 34.6568 34.2639 34.9015C34.6857 35.1462 35.18 35.2333 35.6595 35.1475C36.139 35.0616 36.573 34.8083 36.8849 34.4322ZM34.7652 25.5094C41.4793 26.8129 46 30.0486 46 34.033C46 39.2454 38.2594 43.1765 28 43.1765C17.7368 43.1765 10 39.2454 10 34.033C10 30.0245 14.5755 26.7738 21.3568 25.486L25.7481 11.4822V11.4482C25.8791 11.0347 26.1354 10.6728 26.4813 10.4131C26.8271 10.1535 27.2451 10.0092 27.6766 10.0004C28.1082 9.99167 28.5316 10.1189 28.8876 10.3643C29.2435 10.6097 29.5142 10.961 29.6616 11.3688L29.6917 11.4558L34.7652 25.5094ZM25.8613 24.9475L27.8647 18.5582L30.1645 24.949C29.4573 24.9096 28.7351 24.8894 28 24.8894C27.2738 24.8894 26.5603 24.9091 25.8613 24.9475Z" fill="white"/>
</svg>
