<?xml version="1.0" encoding="utf-8"?>
<svg version="1.1" id="Logo" xmlns="http://www.w3.org/2000/svg" xmlns:xlink="http://www.w3.org/1999/xlink" x="0px" y="0px"
   viewBox="0 0 192 192" style="enable-background:new 0 0 192 192;" xml:space="preserve">
  <style>
    path {
      fill: #1E5B51;
    }
    @media (prefers-color-scheme: dark) {
      path {
        fill: white;
      }
    }
    @media (prefers-color-scheme: light) {
      path {
        fill: black;
      }
    }
  </style>
<g>
  <path fill-rule="evenodd" clip-rule="evenodd" d="M127.591 123.163C128.7 121.836 129.304 120.162 129.297 118.435C129.304 117.587 129.164 116.743 128.882 115.943L128.749 115.583L126.109 108.332C138.201 112.052 145.297 117.55 145.297 121.755C145.297 128.753 125.634 139.337 96 139.337C66.3659 139.337 46.7034 128.753 46.7034 121.755C46.7034 117.399 54.321 111.653 67.2192 107.936L64.6416 116.089C64.4104 116.804 64.2932 117.551 64.294 118.302C64.2906 120.056 64.918 121.753 66.0622 123.086C67.2065 124.418 68.7918 125.297 70.5304 125.563C72.269 125.829 74.0457 125.465 75.5379 124.536C77.0301 123.607 78.139 122.176 78.6633 120.501L83.6231 104.812C87.5133 104.4 91.6492 104.172 96 104.172C100.661 104.172 105.075 104.434 109.205 104.903L115.034 120.968C115.625 122.591 116.771 123.955 118.271 124.818C119.772 125.681 121.529 125.988 123.234 125.685C124.939 125.382 126.482 124.489 127.591 123.163ZM120.054 91.6954C143.927 96.2923 160 107.703 160 121.755C160 140.137 132.478 154 96 154C59.5088 154 32 140.137 32 121.755C32 107.618 48.2685 96.1544 72.3799 91.6128L87.9933 42.2273V42.1073C88.4589 40.649 89.3704 39.3726 90.6001 38.4569C91.8297 37.5413 93.3159 37.0324 94.8502 37.0015C96.3846 36.9706 97.8901 37.4194 99.1558 38.2848C100.421 39.1502 101.384 40.389 101.908 41.8274L102.015 42.1339L120.054 91.6954ZM88.3958 89.714L95.5188 67.1812L103.696 89.719C101.181 89.5802 98.6137 89.5091 96 89.5091C93.4181 89.5091 90.8812 89.5785 88.3958 89.714Z"/>
</g>
</svg>
