<svg width="36" height="34" viewBox="0 0 36 34" fill="none" xmlns="http://www.w3.org/2000/svg">
<path fill-rule="evenodd" clip-rule="evenodd" d="M26.8849 24.4322C27.1968 24.0562 27.3667 23.5815 27.3647 23.0918C27.3669 22.8511 27.3274 22.612 27.2481 22.3849L27.2105 22.2829L26.4683 20.2268C29.8689 21.2817 31.8647 22.8408 31.8647 24.033C31.8647 26.0174 26.3346 29.0186 18 29.0186C9.66541 29.0186 4.13534 26.0174 4.13534 24.033C4.13534 22.7978 6.27777 21.1687 9.9054 20.1146L9.18044 22.4265C9.11544 22.6292 9.08246 22.841 9.0827 23.054C9.08174 23.5514 9.25818 24.0326 9.58 24.4104C9.90182 24.7882 10.3477 25.0374 10.8367 25.1129C11.3257 25.1883 11.8253 25.085 12.245 24.8217C12.6647 24.5583 12.9766 24.1524 13.1241 23.6776L14.519 19.2287C15.6131 19.112 16.7763 19.0473 18 19.0473C19.3109 19.0473 20.5524 19.1216 21.714 19.2544L23.3534 23.8099C23.5195 24.2703 23.842 24.6568 24.2639 24.9015C24.6857 25.1462 25.18 25.2333 25.6595 25.1475C26.139 25.0616 26.573 24.8083 26.8849 24.4322ZM24.7652 15.5094C31.4793 16.8129 36 20.0486 36 24.033C36 29.2454 28.2594 33.1765 18 33.1765C7.73684 33.1765 0 29.2454 0 24.033C0 20.0245 4.57552 16.7738 11.3568 15.486L15.7481 1.48224V1.44822C15.8791 1.03471 16.1354 0.67276 16.4813 0.413123C16.8271 0.153486 17.2451 0.00917566 17.6766 0.000423076C18.1082 -0.00832951 18.5316 0.118915 18.8876 0.364317C19.2435 0.609719 19.5142 0.960975 19.6616 1.36884L19.6917 1.45578L24.7652 15.5094ZM15.8613 14.9475L17.8647 8.55816L20.1645 14.949C19.4573 14.9096 18.7351 14.8894 18 14.8894C17.2738 14.8894 16.5603 14.9091 15.8613 14.9475Z" fill="#1E5B51"/>
</svg>
