<svg width="36" height="36" viewBox="0 0 36 36" fill="none" xmlns="http://www.w3.org/2000/svg">
<path fill-rule="evenodd" clip-rule="evenodd" d="M26.8849 25.4322C27.1968 25.0562 27.3667 24.5815 27.3647 24.0918C27.3669 23.8511 27.3274 23.612 27.2481 23.3849L27.2105 23.2829L26.4683 21.2268C29.8689 22.2817 31.8647 23.8408 31.8647 25.033C31.8647 27.0174 26.3346 30.0186 18 30.0186C9.66541 30.0186 4.13534 27.0174 4.13534 25.033C4.13534 23.7978 6.27777 22.1687 9.9054 21.1146L9.18044 23.4265C9.11544 23.6292 9.08246 23.841 9.0827 24.054C9.08174 24.5514 9.25818 25.0326 9.58 25.4104C9.90182 25.7882 10.3477 26.0374 10.8367 26.1129C11.3257 26.1883 11.8253 26.085 12.245 25.8217C12.6647 25.5583 12.9766 25.1524 13.1241 24.6776L14.519 20.2287C15.6131 20.112 16.7763 20.0473 18 20.0473C19.3109 20.0473 20.5524 20.1216 21.714 20.2544L23.3534 24.8099C23.5195 25.2703 23.842 25.6568 24.2639 25.9015C24.6857 26.1462 25.18 26.2333 25.6595 26.1475C26.139 26.0616 26.573 25.8083 26.8849 25.4322ZM24.7652 16.5094C31.4793 17.8129 36 21.0486 36 25.033C36 30.2454 28.2594 34.1765 18 34.1765C7.73684 34.1765 0 30.2454 0 25.033C0 21.0245 4.57552 17.7738 11.3568 16.486L15.7481 2.48224V2.44822C15.8791 2.03471 16.1354 1.67276 16.4813 1.41312C16.8271 1.15349 17.2451 1.00918 17.6766 1.00042C18.1082 0.99167 18.5316 1.11891 18.8876 1.36432C19.2435 1.60972 19.5142 1.96097 19.6616 2.36884L19.6917 2.45578L24.7652 16.5094ZM15.8613 15.9475L17.8647 9.55816L20.1645 15.949C19.4573 15.9096 18.7351 15.8894 18 15.8894C17.2738 15.8894 16.5603 15.9091 15.8613 15.9475Z" fill="white"/>
</svg>
